# xmcd CD database file
#
# Track frame offsets:
#	150
#	34683
#	61067
#	88610
#	142773
#	185008
#	225737
#	252597
#	277156
#
# Disc length: 4052 seconds
#
# Revision: 0
# Processed by: cddbd v1.5.2PL0 Copyright (c) Steve Scherf et al.
# Submitted via: CDex 1.70beta2
#
DISCID=7b0fd209
DTITLE=Touloulou - Aquarelle
DYEAR=2004
DGENRE=Jazz
TTITLE0=Omission impossible
TTITLE1=L'enfant sur un rocher
TTITLE2=Entre midi
TTITLE3=L'innommée
TTITLE4=Mélu Mélu
TTITLE5=Basse fréquence
TTITLE6=Vents de jungle
TTITLE7=Au-delà
TTITLE8=Coeur tranquille
EXTD=YEAR: 2004
EXTT0=
EXTT1=
EXTT2=
EXTT3=
EXTT4=
EXTT5=
EXTT6=
EXTT7=
EXTT8=
PLAYORDER=
